<svg xmlns="http://www.w3.org/2000/svg" id="Icons_L_Flag_USA" width="40" height="40" viewBox="0 0 40 40">
    <defs>
        <style>
            .cls-1{fill:#ab2717}.cls-2,.cls-5{fill:#fff}.cls-5{fill-rule:evenodd}
        </style>
    </defs>
    <g id="us_40">
        <path id="Rectangle_4219" d="M0 0H38.37V5.99H0z" class="cls-1" transform="translate(.87 34.01)"/>
        <path id="Rectangle_4220" d="M0 0H38.37V5.57H0z" class="cls-2" transform="translate(.82 28.43)"/>
        <path id="Rectangle_4221" d="M0 0H38.37V5.57H0z" class="cls-1" transform="translate(.87 22.93)"/>
        <path id="Rectangle_4222" d="M0 0H38.37V5.57H0z" class="cls-2" transform="translate(1.2 17.4)"/>
        <path id="Rectangle_4223" d="M0 0H38.37V5.57H0z" class="cls-1" transform="translate(1.14 11.82)"/>
        <path id="Rectangle_4224" d="M0 0H38.37V5.57H0z" class="cls-2" transform="translate(1.2 6.32)"/>
        <path id="Rectangle_4225" d="M0 0H38.37V6.36H0z" class="cls-1" transform="translate(.87)"/>
        <path id="Path_3996" d="M20.5 20.3H.27V.08H20.5zm-19.23-1H19.5V1.08H1.27z"/>
        <g id="Group_5288" fill="#23529e">
            <path id="Rectangle_4226_1_" d="M0 0H19.23V19.23H0z" transform="translate(.78 .58)"/>
            <path id="Path_3712" fill-rule="evenodd" d="M19.33 0h1.33v20.67H0v-1.33h19.33z"/>
        </g>
        <path id="Path_3713" d="M3.01 3.58l-.5.27.1-.58-.41-.41.55-.09.25-.53.25.53.55.09-.4.41.1.58z" class="cls-5"/>
        <path id="Path_3714" d="M3.01 7.47l-.5.27.1-.58-.41-.41.55-.08.25-.53.25.53.55.08-.4.41.1.58z" class="cls-5"/>
        <path id="Path_3715" d="M3.01 11.09l-.5.27.1-.58-.4-.41.55-.08.24-.53.25.53.55.08-.4.41.1.58z" class="cls-5"/>
        <path id="Path_3716" d="M3.01 14.98l-.5.27.1-.58-.4-.41.55-.08.24-.53.25.53.55.08-.4.41.1.58z" class="cls-5"/>
        <path id="Path_3717" d="M3.01 18.87l-.5.27.1-.58-.4-.41.55-.08.24-.54.25.53.55.08-.4.41.1.58z" class="cls-5"/>
        <path id="Path_3718" d="M4.76 9.28l-.5.27.1-.58-.4-.41.55-.08.25-.53.25.53.55.08-.4.41.1.58z" class="cls-5"/>
        <path id="Path_3719" d="M4.76 13.17l-.5.27.1-.58-.4-.41.55-.08.25-.53.25.53.55.08-.4.41.1.58z" class="cls-5"/>
        <path id="Path_3720" d="M4.76 5.39l-.5.27.1-.58-.4-.41.55-.08.25-.53.25.53.55.08-.4.41.1.58z" class="cls-5"/>
        <path id="Path_3721" d="M4.76 16.79l-.5.27.1-.58-.4-.41.55-.08.25-.53.25.53.55.08-.4.41.1.58z" class="cls-5"/>
        <path id="Path_3722" d="M6.32 3.58l-.5.27.1-.58-.4-.41.55-.09.25-.53.25.53.55.09-.4.41.1.58z" class="cls-5"/>
        <path id="Path_3723" d="M6.32 7.47l-.5.27.1-.58-.4-.41.55-.08.25-.53.25.53.55.08-.4.41.1.58z" class="cls-5"/>
        <path id="Path_3724" d="M6.32 11.09l-.5.27.1-.58-.4-.41.55-.08.25-.53.25.53.55.08-.4.41.1.58z" class="cls-5"/>
        <path id="Path_3725" d="M6.32 14.98l-.5.27.1-.58-.4-.41.55-.08.25-.53.25.53.55.08-.4.41.1.58z" class="cls-5"/>
        <path id="Path_3726" d="M6.32 18.87l-.5.27.1-.58-.4-.41.55-.08.25-.53.25.53.55.08-.4.41.1.58z" class="cls-5"/>
        <path id="Path_3727" d="M7.88 9.28l-.5.27.1-.58-.4-.41.55-.08.25-.53.25.53.55.08-.4.41.1.58z" class="cls-5"/>
        <path id="Path_3728" d="M7.88 13.17l-.5.27.1-.58-.4-.41.55-.08.25-.53.25.53.55.08-.4.41.1.58z" class="cls-5"/>
        <path id="Path_3729" d="M7.88 5.39l-.5.27.1-.58-.4-.41.55-.08.25-.53.25.53.55.08-.4.41.1.58z" class="cls-5"/>
        <path id="Path_3730" d="M7.88 16.79l-.5.27.1-.58-.4-.41.55-.08.25-.53.25.53.55.08-.4.41.1.58z" class="cls-5"/>
        <path id="Path_3731" d="M9.44 3.58l-.5.27.1-.58-.4-.41.55-.09.25-.52.25.53.55.09-.4.41.1.58z" class="cls-5"/>
        <path id="Path_3732" d="M9.44 7.47l-.5.27.1-.58-.4-.41.55-.08.25-.53.25.53.55.08-.4.41.1.58z" class="cls-5"/>
        <path id="Path_3733" d="M9.44 11.09l-.5.27.1-.58-.4-.41.55-.08.25-.53.25.53.55.08-.4.41.1.58z" class="cls-5"/>
        <path id="Path_3734" d="M9.44 14.98l-.5.27.1-.58-.4-.41.55-.08.25-.53.25.53.55.08-.4.41.1.58z" class="cls-5"/>
        <path id="Path_3735" d="M9.44 18.87l-.5.27.1-.58-.4-.41.55-.08.25-.53.25.53.55.08-.4.41.1.58z" class="cls-5"/>
        <path id="Path_3736" d="M11 9.28l-.5.27.1-.58-.4-.41.55-.08.25-.54.25.53.55.08-.4.41.1.58z" class="cls-5"/>
        <path id="Path_3737" d="M11 13.17l-.5.27.1-.58-.4-.41.55-.08.25-.54.25.53.55.08-.4.41.1.58z" class="cls-5"/>
        <path id="Path_3738" d="M11 5.39l-.5.27.1-.58-.4-.41.55-.08.25-.54.25.53.55.08-.4.41.1.58z" class="cls-5"/>
        <path id="Path_3739" d="M11 16.79l-.5.27.1-.58-.4-.41.55-.08.25-.53.25.53.55.08-.4.41.1.58z" class="cls-5"/>
        <path id="Path_3740" d="M12.56 3.58l-.5.27.1-.58-.4-.41.55-.09.25-.53.25.53.55.09-.4.41.1.58z" class="cls-5"/>
        <path id="Path_3741" d="M12.56 7.47l-.5.27.1-.58-.4-.41.55-.08.25-.53.25.53.55.08-.4.41.1.58z" class="cls-5"/>
        <path id="Path_3742" d="M12.56 11.09l-.5.27.1-.58-.4-.41.55-.08.25-.53.25.53.55.08-.4.41.1.58z" class="cls-5"/>
        <path id="Path_3743" d="M12.56 14.98l-.5.27.1-.58-.4-.41.55-.08.25-.53.25.53.55.08-.4.41.1.58z" class="cls-5"/>
        <path id="Path_3744" d="M12.56 18.87l-.5.27.1-.58-.4-.41.55-.08.25-.53.25.53.55.08-.4.41.1.58z" class="cls-5"/>
        <path id="Path_3745" d="M14.13 9.28l-.5.27.1-.58-.4-.41.55-.08.25-.53.25.53.55.08-.4.41.1.58z" class="cls-5"/>
        <path id="Path_3746" d="M14.13 13.17l-.5.27.1-.58-.4-.41.55-.08.25-.53.25.53.55.08-.4.41.1.58z" class="cls-5"/>
        <path id="Path_3747" d="M14.13 5.39l-.5.27.1-.58-.4-.41.55-.08.25-.53.25.53.55.08-.4.41.1.58z" class="cls-5"/>
        <path id="Path_3748" d="M14.13 16.79l-.5.27.1-.58-.4-.41.55-.08.25-.53.25.53.55.08-.4.41.1.58z" class="cls-5"/>
        <path id="Path_3749" d="M15.69 3.58l-.5.27.1-.58-.4-.41.55-.09.25-.53.25.53.55.09-.4.41.1.58z" class="cls-5"/>
        <path id="Path_3750" d="M15.69 7.47l-.5.27.1-.58-.4-.41.55-.08.25-.53.25.53.55.08-.4.41.1.58z" class="cls-5"/>
        <path id="Path_3751" d="M15.69 11.09l-.5.27.1-.58-.4-.41.55-.08.25-.53.25.53.55.08-.4.41.1.58z" class="cls-5"/>
        <path id="Path_3752" d="M15.69 14.98l-.5.27.1-.58-.4-.41.55-.08.25-.53.25.53.55.08-.4.41.1.58z" class="cls-5"/>
        <path id="Path_3753" d="M15.69 18.87l-.5.27.1-.58-.4-.41.55-.08.25-.53.25.53.55.08-.4.41.1.58z" class="cls-5"/>
        <path id="Path_3754" d="M17.25 9.28l-.5.27.1-.58-.4-.41.55-.09.25-.53.25.53.55.08-.4.41.1.58z" class="cls-5"/>
        <path id="Path_3755" d="M17.25 13.17l-.5.27.1-.58-.4-.41.55-.09.25-.53.25.53.55.08-.4.41.1.58z" class="cls-5"/>
        <path id="Path_3756" d="M17.25 5.39l-.5.27.1-.58-.4-.41.55-.09.25-.53.25.53.55.08-.4.41.1.58z" class="cls-5"/>
        <path id="Path_3757" d="M17.25 16.79l-.5.27.1-.58-.4-.41.55-.09.25-.53.25.53.55.08-.4.41.1.58z" class="cls-5"/>
        <path id="Path_3758" d="M18.81 3.58l-.5.27.1-.58-.41-.41.55-.09.25-.53.25.53.55.09-.4.41.1.58z" class="cls-5"/>
        <path id="Path_3759" d="M18.81 7.47l-.5.27.1-.58-.41-.41.55-.08.25-.53.25.53.55.08-.4.41.1.58z" class="cls-5"/>
        <path id="Path_3760" d="M18.81 11.09l-.5.27.1-.58-.41-.41.55-.08.25-.53.25.53.55.08-.4.41.1.58z" class="cls-5"/>
        <path id="Path_3761" d="M18.81 14.98l-.5.27.1-.58-.41-.41.55-.08.25-.53.25.53.55.08-.4.41.1.58z" class="cls-5"/>
        <path id="Path_3762" d="M18.81 18.87l-.5.27.1-.58-.41-.41.55-.08.25-.53.25.53.55.08-.4.41.1.58z" class="cls-5"/>
        <path id="Path_3763" fill-rule="evenodd" d="M0 0v40h40V0zm1.33 1.33v37.33h37.33V1.33z"/>
    </g>
</svg>
